<svg xmlns="http://www.w3.org/2000/svg" viewBox="0 0 180 180"><g fill="#ef5c89" opacity="0.95"><ellipse cx="38" cy="57" rx="15" ry="36" transform="rotate(-28 38 57)"/><ellipse cx="67" cy="38" rx="14" ry="40" transform="rotate(-10 67 38)"/><ellipse cx="98" cy="37" rx="14" ry="40" transform="rotate(8 98 37)"/><ellipse cx="127" cy="53" rx="14" ry="36" transform="rotate(25 127 53)"/><ellipse cx="148" cy="83" rx="13" ry="30" transform="rotate(45 148 83)"/><path d="M56 83c-22 19-25 54-4 76 22 23 63 20 82-3 22-27 14-68-19-83-20-9-43-6-59 10z"/><ellipse cx="65" cy="151" rx="18" ry="10" transform="rotate(24 65 151)"/></g></svg>